<svg width="86" height="86" viewBox="0 0 86 86" fill="none" xmlns="http://www.w3.org/2000/svg">
<rect width="86" height="86" fill="#E14A38"/>
<rect width="86" height="86" fill="url(#paint0_linear_1_2)" fill-opacity="0.7"/>
<rect width="86" height="86" fill="url(#paint1_linear_1_2)" fill-opacity="0.6"/>
<path d="M30.1613 33.1418C28.028 31.2043 26.2941 29.241 29.0237 26.712C32.1081 23.8549 35.2099 21.0133 38.3292 18.1872C41.1193 15.6581 42.5248 15.0381 45.5776 17.8513C48.1943 20.2589 50.7988 22.6795 53.3909 25.1129C55.4244 27.0246 57.5025 28.479 55.9445 30.9796C55.6748 31.4119 55.0005 32.1223 53.9216 33.1108C51.4468 35.3738 48.9877 37.6505 46.5444 39.941C43.6808 42.6225 41.9915 44.2086 38.6235 40.9201C35.8886 38.2464 32.9934 35.7148 30.1613 33.1418ZM43.2552 29.334C43.2552 29.1912 43.2266 29.0498 43.171 28.9178C43.1154 28.7859 43.034 28.666 42.9313 28.565C42.8286 28.464 42.7066 28.3839 42.5724 28.3293C42.4382 28.2746 42.2944 28.2465 42.1492 28.2465C42.0039 28.2465 41.8601 28.2746 41.7259 28.3293C41.5917 28.3839 41.4698 28.464 41.3671 28.565C41.2644 28.666 41.1829 28.7859 41.1273 28.9178C41.0717 29.0498 41.0431 29.1912 41.0431 29.334C41.0431 29.6225 41.1597 29.8991 41.3671 30.1031C41.5745 30.307 41.8558 30.4216 42.1492 30.4216C42.2944 30.4216 42.4382 30.3935 42.5724 30.3388C42.7066 30.2842 42.8286 30.2041 42.9313 30.1031C43.034 30.0021 43.1154 29.8822 43.171 29.7502C43.2266 29.6183 43.2552 29.4769 43.2552 29.334Z" fill="white"/>
<path d="M15.6719 56.2959C14.1167 54.839 12.3197 53.5266 13.2602 51.0699C13.5518 50.313 14.3636 49.5871 15.0677 48.9361C18.3044 45.9499 21.5463 42.9696 24.7935 39.9954C27.137 37.8461 28.7895 38.9776 30.7389 40.7704C33.8179 43.6051 36.8751 46.4613 39.9104 49.3391C42.1882 51.4962 42.0726 53.3742 39.8421 55.4925C36.686 58.4909 33.4974 61.4556 30.2765 64.3868C28.2614 66.2209 26.7219 66.3992 24.6885 64.5728C21.6549 61.8414 18.6494 59.0824 15.6719 56.2959ZM28.9971 52.4055C28.9971 52.2047 28.9568 52.0058 28.8787 51.8203C28.8005 51.6347 28.6859 51.4661 28.5415 51.3241C28.3971 51.1821 28.2256 51.0695 28.0369 50.9926C27.8482 50.9157 27.646 50.8762 27.4418 50.8762C27.2375 50.8762 27.0353 50.9157 26.8466 50.9926C26.6579 51.0695 26.4864 51.1821 26.342 51.3241C26.1976 51.4661 26.083 51.6347 26.0048 51.8203C25.9267 52.0058 25.8865 52.2047 25.8865 52.4055C25.8865 52.8111 26.0503 53.2001 26.342 53.4869C26.6337 53.7737 27.0293 53.9348 27.4418 53.9348C27.8543 53.9348 28.2498 53.7737 28.5415 53.4869C28.8332 53.2001 28.9971 52.8111 28.9971 52.4055Z" fill="white"/>
<path d="M44.8945 56.1095C43.8909 55.164 42.911 54.5001 42.6561 53.1827C42.4004 51.8566 42.8453 50.6528 43.9907 49.5712C45.9559 47.7147 49.415 44.5063 54.3681 39.9459C56.7562 37.7475 58.372 39.003 60.4369 40.8862C63.4232 43.6107 66.384 46.3593 69.3195 49.1321C71.9072 51.5759 71.8022 53.2628 69.2301 55.66C66.0985 58.5774 62.9564 61.4845 59.8038 64.3812C56.8167 67.1247 55.2771 65.6057 52.8522 63.4331C50.169 61.0255 47.5164 58.5843 44.8945 56.1095ZM58.4718 52.4103C58.4718 52.2091 58.4315 52.0099 58.3532 51.824C58.2749 51.6382 58.1602 51.4693 58.0155 51.3271C57.8708 51.1848 57.6991 51.072 57.5101 50.995C57.321 50.918 57.1185 50.8784 56.9139 50.8784C56.7093 50.8784 56.5067 50.918 56.3177 50.995C56.1287 51.072 55.9569 51.1848 55.8123 51.3271C55.6676 51.4693 55.5528 51.6382 55.4745 51.824C55.3962 52.0099 55.356 52.2091 55.356 52.4103C55.356 52.8165 55.5201 53.2062 55.8123 53.4935C56.1044 53.7808 56.5007 53.9422 56.9139 53.9422C57.3271 53.9422 57.7233 53.7808 58.0155 53.4935C58.3077 53.2062 58.4718 52.8165 58.4718 52.4103Z" fill="white"/>
<defs>
<linearGradient id="paint0_linear_1_2" x1="74" y1="16" x2="11" y2="73" gradientUnits="userSpaceOnUse">
<stop stop-color="#FF2D14"/>
<stop offset="1" stop-color="#FF2D14" stop-opacity="0"/>
</linearGradient>
<linearGradient id="paint1_linear_1_2" x1="49" y1="62" x2="15" y2="78" gradientUnits="userSpaceOnUse">
<stop stop-color="#FFB800" stop-opacity="0"/>
<stop offset="1" stop-color="#FFB800"/>
</linearGradient>
</defs>
</svg>
